<mxfile host="app.diagrams.net" modified="2020-12-11T12:17:44.156Z" agent="5.0 (Windows NT 6.1; Win64; x64) AppleWebKit/537.36 (KHTML, like Gecko) Chrome/87.0.4280.88 Safari/537.36" etag="cgyICNenYjpfBcr8SuRt" version="14.0.1" type="github">
  <diagram name="Page-1" id="edf60f1a-56cd-e834-aa8a-f176f3a09ee4">
    <mxGraphModel dx="1038" dy="1410" grid="1" gridSize="10" guides="1" tooltips="1" connect="1" arrows="1" fold="1" page="1" pageScale="1" pageWidth="1100" pageHeight="850" background="#ffffff" math="0" shadow="0">
      <root>
        <mxCell id="0" />
        <mxCell id="1" parent="0" />
        <mxCell id="May-3gd8B86LCepg70mn-3" value="" style="edgeStyle=orthogonalEdgeStyle;rounded=0;orthogonalLoop=1;jettySize=auto;html=1;" edge="1" parent="1" source="May-3gd8B86LCepg70mn-1" target="May-3gd8B86LCepg70mn-2">
          <mxGeometry relative="1" as="geometry" />
        </mxCell>
        <mxCell id="May-3gd8B86LCepg70mn-50" value="" style="edgeStyle=orthogonalEdgeStyle;rounded=0;orthogonalLoop=1;jettySize=auto;html=1;" edge="1" parent="1" source="May-3gd8B86LCepg70mn-1" target="May-3gd8B86LCepg70mn-49">
          <mxGeometry relative="1" as="geometry" />
        </mxCell>
        <mxCell id="May-3gd8B86LCepg70mn-1" value="SqlSessionFactoryBuilder" style="rounded=1;whiteSpace=wrap;html=1;" vertex="1" parent="1">
          <mxGeometry x="425" y="-50" width="170" height="60" as="geometry" />
        </mxCell>
        <mxCell id="May-3gd8B86LCepg70mn-5" value="" style="edgeStyle=orthogonalEdgeStyle;rounded=0;orthogonalLoop=1;jettySize=auto;html=1;" edge="1" parent="1" source="May-3gd8B86LCepg70mn-2" target="May-3gd8B86LCepg70mn-4">
          <mxGeometry relative="1" as="geometry" />
        </mxCell>
        <mxCell id="May-3gd8B86LCepg70mn-13" value="" style="edgeStyle=orthogonalEdgeStyle;rounded=0;orthogonalLoop=1;jettySize=auto;html=1;" edge="1" parent="1" source="May-3gd8B86LCepg70mn-2" target="May-3gd8B86LCepg70mn-12">
          <mxGeometry relative="1" as="geometry" />
        </mxCell>
        <mxCell id="May-3gd8B86LCepg70mn-2" value="SqlSessionFactory" style="rounded=1;whiteSpace=wrap;html=1;" vertex="1" parent="1">
          <mxGeometry x="450" y="60" width="120" height="60" as="geometry" />
        </mxCell>
        <mxCell id="May-3gd8B86LCepg70mn-7" value="" style="edgeStyle=orthogonalEdgeStyle;rounded=0;orthogonalLoop=1;jettySize=auto;html=1;" edge="1" parent="1" source="May-3gd8B86LCepg70mn-4" target="May-3gd8B86LCepg70mn-6">
          <mxGeometry relative="1" as="geometry" />
        </mxCell>
        <mxCell id="May-3gd8B86LCepg70mn-11" value="" style="edgeStyle=orthogonalEdgeStyle;rounded=0;orthogonalLoop=1;jettySize=auto;html=1;" edge="1" parent="1" source="May-3gd8B86LCepg70mn-4" target="May-3gd8B86LCepg70mn-10">
          <mxGeometry relative="1" as="geometry" />
        </mxCell>
        <mxCell id="May-3gd8B86LCepg70mn-4" value="SqlSession" style="rounded=1;whiteSpace=wrap;html=1;" vertex="1" parent="1">
          <mxGeometry x="450" y="400" width="120" height="80" as="geometry" />
        </mxCell>
        <mxCell id="May-3gd8B86LCepg70mn-6" value="关闭连接" style="rounded=1;whiteSpace=wrap;html=1;" vertex="1" parent="1">
          <mxGeometry x="450" y="1120" width="120" height="80" as="geometry" />
        </mxCell>
        <mxCell id="May-3gd8B86LCepg70mn-15" value="" style="edgeStyle=orthogonalEdgeStyle;rounded=0;orthogonalLoop=1;jettySize=auto;html=1;" edge="1" parent="1" source="May-3gd8B86LCepg70mn-10" target="May-3gd8B86LCepg70mn-14">
          <mxGeometry relative="1" as="geometry" />
        </mxCell>
        <mxCell id="May-3gd8B86LCepg70mn-10" value="提供&lt;br&gt;代理mapper的方法&lt;br&gt;（调用Configuration.&amp;lt;T&amp;gt;getMapper）" style="rounded=1;whiteSpace=wrap;html=1;" vertex="1" parent="1">
          <mxGeometry x="640" y="400" width="240" height="80" as="geometry" />
        </mxCell>
        <mxCell id="May-3gd8B86LCepg70mn-29" value="" style="edgeStyle=orthogonalEdgeStyle;rounded=0;orthogonalLoop=1;jettySize=auto;html=1;entryX=0.5;entryY=0;entryDx=0;entryDy=0;" edge="1" parent="1" source="May-3gd8B86LCepg70mn-12" target="May-3gd8B86LCepg70mn-30">
          <mxGeometry relative="1" as="geometry">
            <mxPoint x="700" y="200" as="targetPoint" />
          </mxGeometry>
        </mxCell>
        <mxCell id="May-3gd8B86LCepg70mn-12" value="openSession" style="rounded=1;whiteSpace=wrap;html=1;" vertex="1" parent="1">
          <mxGeometry x="640" y="60" width="120" height="60" as="geometry" />
        </mxCell>
        <mxCell id="May-3gd8B86LCepg70mn-17" value="" style="edgeStyle=orthogonalEdgeStyle;rounded=0;orthogonalLoop=1;jettySize=auto;html=1;" edge="1" parent="1" source="May-3gd8B86LCepg70mn-14" target="May-3gd8B86LCepg70mn-16">
          <mxGeometry relative="1" as="geometry" />
        </mxCell>
        <mxCell id="May-3gd8B86LCepg70mn-14" value="获取MappedStatement" style="rounded=1;whiteSpace=wrap;html=1;" vertex="1" parent="1">
          <mxGeometry x="700" y="550" width="120" height="80" as="geometry" />
        </mxCell>
        <mxCell id="May-3gd8B86LCepg70mn-19" value="" style="edgeStyle=orthogonalEdgeStyle;rounded=0;orthogonalLoop=1;jettySize=auto;html=1;" edge="1" parent="1" source="May-3gd8B86LCepg70mn-16" target="May-3gd8B86LCepg70mn-18">
          <mxGeometry relative="1" as="geometry" />
        </mxCell>
        <mxCell id="May-3gd8B86LCepg70mn-16" value="调用Executor执行sql" style="rounded=1;whiteSpace=wrap;html=1;" vertex="1" parent="1">
          <mxGeometry x="890" y="550" width="120" height="80" as="geometry" />
        </mxCell>
        <mxCell id="May-3gd8B86LCepg70mn-21" value="" style="edgeStyle=orthogonalEdgeStyle;rounded=0;orthogonalLoop=1;jettySize=auto;html=1;" edge="1" parent="1" source="May-3gd8B86LCepg70mn-18" target="May-3gd8B86LCepg70mn-20">
          <mxGeometry relative="1" as="geometry" />
        </mxCell>
        <mxCell id="May-3gd8B86LCepg70mn-18" value="获取Mybatis配置类&lt;br&gt;Configuration" style="rounded=1;whiteSpace=wrap;html=1;" vertex="1" parent="1">
          <mxGeometry x="890" y="680" width="120" height="80" as="geometry" />
        </mxCell>
        <mxCell id="May-3gd8B86LCepg70mn-23" value="" style="edgeStyle=orthogonalEdgeStyle;rounded=0;orthogonalLoop=1;jettySize=auto;html=1;" edge="1" parent="1" source="May-3gd8B86LCepg70mn-20" target="May-3gd8B86LCepg70mn-22">
          <mxGeometry relative="1" as="geometry" />
        </mxCell>
        <mxCell id="May-3gd8B86LCepg70mn-65" value="" style="edgeStyle=orthogonalEdgeStyle;rounded=0;orthogonalLoop=1;jettySize=auto;html=1;" edge="1" parent="1" source="May-3gd8B86LCepg70mn-20" target="May-3gd8B86LCepg70mn-64">
          <mxGeometry relative="1" as="geometry" />
        </mxCell>
        <mxCell id="May-3gd8B86LCepg70mn-20" value="调用Configuration 的 newStatementHandler方式&lt;br&gt;根据MappedStatement&lt;br&gt;获取StatementHandler" style="rounded=1;whiteSpace=wrap;html=1;" vertex="1" parent="1">
          <mxGeometry x="1055" y="680" width="190" height="80" as="geometry" />
        </mxCell>
        <mxCell id="May-3gd8B86LCepg70mn-25" value="" style="edgeStyle=orthogonalEdgeStyle;rounded=0;orthogonalLoop=1;jettySize=auto;html=1;" edge="1" parent="1" source="May-3gd8B86LCepg70mn-22" target="May-3gd8B86LCepg70mn-24">
          <mxGeometry relative="1" as="geometry">
            <mxPoint x="1710" y="720" as="targetPoint" />
          </mxGeometry>
        </mxCell>
        <mxCell id="May-3gd8B86LCepg70mn-22" value="编译表达式prepareStatement&lt;br&gt;获取Statement" style="rounded=1;whiteSpace=wrap;html=1;" vertex="1" parent="1">
          <mxGeometry x="1450" y="680" width="120" height="80" as="geometry" />
        </mxCell>
        <mxCell id="May-3gd8B86LCepg70mn-46" value="" style="edgeStyle=orthogonalEdgeStyle;rounded=0;orthogonalLoop=1;jettySize=auto;html=1;" edge="1" parent="1" source="May-3gd8B86LCepg70mn-24" target="May-3gd8B86LCepg70mn-45">
          <mxGeometry relative="1" as="geometry" />
        </mxCell>
        <mxCell id="May-3gd8B86LCepg70mn-24" value="调用StatementHandler&lt;br&gt;执行Statement" style="rounded=1;whiteSpace=wrap;html=1;" vertex="1" parent="1">
          <mxGeometry x="1710" y="680" width="120" height="80" as="geometry" />
        </mxCell>
        <mxCell id="May-3gd8B86LCepg70mn-32" value="" style="edgeStyle=orthogonalEdgeStyle;rounded=0;orthogonalLoop=1;jettySize=auto;html=1;" edge="1" parent="1" source="May-3gd8B86LCepg70mn-30" target="May-3gd8B86LCepg70mn-31">
          <mxGeometry relative="1" as="geometry" />
        </mxCell>
        <mxCell id="May-3gd8B86LCepg70mn-38" value="" style="edgeStyle=orthogonalEdgeStyle;rounded=0;orthogonalLoop=1;jettySize=auto;html=1;" edge="1" parent="1" source="May-3gd8B86LCepg70mn-30" target="May-3gd8B86LCepg70mn-31">
          <mxGeometry relative="1" as="geometry" />
        </mxCell>
        <mxCell id="May-3gd8B86LCepg70mn-30" value="&lt;span style=&quot;font-size: 12.8px&quot;&gt;创建事务&lt;/span&gt;" style="rounded=1;whiteSpace=wrap;html=1;" vertex="1" parent="1">
          <mxGeometry x="640" y="160" width="120" height="80" as="geometry" />
        </mxCell>
        <mxCell id="May-3gd8B86LCepg70mn-35" value="" style="edgeStyle=orthogonalEdgeStyle;rounded=0;orthogonalLoop=1;jettySize=auto;html=1;entryX=0.5;entryY=0;entryDx=0;entryDy=0;" edge="1" parent="1" source="May-3gd8B86LCepg70mn-31" target="May-3gd8B86LCepg70mn-34">
          <mxGeometry relative="1" as="geometry">
            <mxPoint x="900" y="270" as="targetPoint" />
          </mxGeometry>
        </mxCell>
        <mxCell id="May-3gd8B86LCepg70mn-37" value="" style="edgeStyle=orthogonalEdgeStyle;rounded=0;orthogonalLoop=1;jettySize=auto;html=1;" edge="1" parent="1" source="May-3gd8B86LCepg70mn-31" target="May-3gd8B86LCepg70mn-36">
          <mxGeometry relative="1" as="geometry" />
        </mxCell>
        <mxCell id="May-3gd8B86LCepg70mn-31" value="&lt;span style=&quot;font-size: 12.8px&quot;&gt;创建Executor&lt;br&gt;&lt;/span&gt;" style="rounded=1;whiteSpace=wrap;html=1;" vertex="1" parent="1">
          <mxGeometry x="840" y="160" width="120" height="80" as="geometry" />
        </mxCell>
        <mxCell id="May-3gd8B86LCepg70mn-34" value="&lt;span style=&quot;font-size: 12.8px&quot;&gt;添加插件&lt;br&gt;pluginAll&lt;/span&gt;" style="rounded=1;whiteSpace=wrap;html=1;" vertex="1" parent="1">
          <mxGeometry x="840" y="280" width="120" height="80" as="geometry" />
        </mxCell>
        <mxCell id="May-3gd8B86LCepg70mn-36" value="&lt;span style=&quot;font-size: 12.8px&quot;&gt;创建SqlSession&lt;br&gt;&lt;/span&gt;" style="rounded=1;whiteSpace=wrap;html=1;" vertex="1" parent="1">
          <mxGeometry x="1040" y="160" width="120" height="80" as="geometry" />
        </mxCell>
        <mxCell id="May-3gd8B86LCepg70mn-42" value="" style="edgeStyle=orthogonalEdgeStyle;rounded=0;orthogonalLoop=1;jettySize=auto;html=1;" edge="1" parent="1" source="May-3gd8B86LCepg70mn-39" target="May-3gd8B86LCepg70mn-41">
          <mxGeometry relative="1" as="geometry" />
        </mxCell>
        <mxCell id="May-3gd8B86LCepg70mn-39" value="加载DataSource" style="rounded=1;whiteSpace=wrap;html=1;" vertex="1" parent="1">
          <mxGeometry x="820" y="-50" width="120" height="60" as="geometry" />
        </mxCell>
        <mxCell id="May-3gd8B86LCepg70mn-44" value="" style="edgeStyle=orthogonalEdgeStyle;rounded=0;orthogonalLoop=1;jettySize=auto;html=1;" edge="1" parent="1" source="May-3gd8B86LCepg70mn-41" target="May-3gd8B86LCepg70mn-43">
          <mxGeometry relative="1" as="geometry" />
        </mxCell>
        <mxCell id="May-3gd8B86LCepg70mn-41" value="加载mapper列表" style="rounded=1;whiteSpace=wrap;html=1;" vertex="1" parent="1">
          <mxGeometry x="1020" y="-50" width="120" height="60" as="geometry" />
        </mxCell>
        <mxCell id="May-3gd8B86LCepg70mn-48" value="" style="edgeStyle=orthogonalEdgeStyle;rounded=0;orthogonalLoop=1;jettySize=auto;html=1;" edge="1" parent="1" source="May-3gd8B86LCepg70mn-43" target="May-3gd8B86LCepg70mn-47">
          <mxGeometry relative="1" as="geometry" />
        </mxCell>
        <mxCell id="May-3gd8B86LCepg70mn-43" value="加载plugin列表" style="rounded=1;whiteSpace=wrap;html=1;" vertex="1" parent="1">
          <mxGeometry x="1220" y="-50" width="120" height="60" as="geometry" />
        </mxCell>
        <mxCell id="May-3gd8B86LCepg70mn-45" value="调用ResultHandler &lt;br&gt;处理返回值" style="rounded=1;whiteSpace=wrap;html=1;" vertex="1" parent="1">
          <mxGeometry x="1710" y="840" width="120" height="80" as="geometry" />
        </mxCell>
        <mxCell id="May-3gd8B86LCepg70mn-47" value="组装成C&lt;span style=&quot;font-family: &amp;#34;jetbrains mono&amp;#34; , monospace ; font-size: 9.6pt ; color: rgb(152 , 118 , 170)&quot;&gt;onfiguration&lt;/span&gt;" style="rounded=1;whiteSpace=wrap;html=1;" vertex="1" parent="1">
          <mxGeometry x="1420" y="-50" width="120" height="60" as="geometry" />
        </mxCell>
        <mxCell id="May-3gd8B86LCepg70mn-51" value="" style="edgeStyle=orthogonalEdgeStyle;rounded=0;orthogonalLoop=1;jettySize=auto;html=1;" edge="1" parent="1" source="May-3gd8B86LCepg70mn-49" target="May-3gd8B86LCepg70mn-39">
          <mxGeometry relative="1" as="geometry" />
        </mxCell>
        <mxCell id="May-3gd8B86LCepg70mn-49" value="解析XML" style="rounded=1;whiteSpace=wrap;html=1;" vertex="1" parent="1">
          <mxGeometry x="640" y="-50" width="120" height="60" as="geometry" />
        </mxCell>
        <mxCell id="May-3gd8B86LCepg70mn-52" value="&lt;span style=&quot;font-size: 12.8px&quot;&gt;添加插件&lt;br&gt;pluginAll&lt;/span&gt;" style="rounded=1;whiteSpace=wrap;html=1;" vertex="1" parent="1">
          <mxGeometry x="1300" y="1000" width="120" height="80" as="geometry" />
        </mxCell>
        <mxCell id="May-3gd8B86LCepg70mn-57" value="" style="edgeStyle=orthogonalEdgeStyle;rounded=0;orthogonalLoop=1;jettySize=auto;html=1;exitX=0.5;exitY=1;exitDx=0;exitDy=0;" edge="1" parent="1" source="May-3gd8B86LCepg70mn-55" target="May-3gd8B86LCepg70mn-52">
          <mxGeometry relative="1" as="geometry">
            <mxPoint x="1360" y="960" as="sourcePoint" />
          </mxGeometry>
        </mxCell>
        <mxCell id="May-3gd8B86LCepg70mn-59" value="" style="edgeStyle=orthogonalEdgeStyle;rounded=0;orthogonalLoop=1;jettySize=auto;html=1;" edge="1" parent="1" source="May-3gd8B86LCepg70mn-55" target="May-3gd8B86LCepg70mn-58">
          <mxGeometry relative="1" as="geometry" />
        </mxCell>
        <mxCell id="May-3gd8B86LCepg70mn-55" value="创建ParameterHandler" style="rounded=1;whiteSpace=wrap;html=1;" vertex="1" parent="1">
          <mxGeometry x="1300" y="840" width="120" height="80" as="geometry" />
        </mxCell>
        <mxCell id="May-3gd8B86LCepg70mn-61" value="" style="edgeStyle=orthogonalEdgeStyle;rounded=0;orthogonalLoop=1;jettySize=auto;html=1;exitX=0.5;exitY=1;exitDx=0;exitDy=0;" edge="1" parent="1" source="May-3gd8B86LCepg70mn-58" target="May-3gd8B86LCepg70mn-60">
          <mxGeometry relative="1" as="geometry">
            <mxPoint x="1560" y="960" as="sourcePoint" />
          </mxGeometry>
        </mxCell>
        <mxCell id="May-3gd8B86LCepg70mn-58" value="创建ResultSetHandler" style="rounded=1;whiteSpace=wrap;html=1;" vertex="1" parent="1">
          <mxGeometry x="1500" y="840" width="120" height="80" as="geometry" />
        </mxCell>
        <mxCell id="May-3gd8B86LCepg70mn-60" value="&lt;span style=&quot;font-size: 12.8px&quot;&gt;添加插件&lt;/span&gt;&lt;br style=&quot;font-size: 12.8px&quot;&gt;&lt;span style=&quot;font-size: 12.8px&quot;&gt;pluginAll&lt;/span&gt;" style="rounded=1;whiteSpace=wrap;html=1;" vertex="1" parent="1">
          <mxGeometry x="1500" y="1000" width="120" height="80" as="geometry" />
        </mxCell>
        <mxCell id="May-3gd8B86LCepg70mn-67" value="" style="edgeStyle=orthogonalEdgeStyle;rounded=0;orthogonalLoop=1;jettySize=auto;html=1;entryX=0.5;entryY=0;entryDx=0;entryDy=0;" edge="1" parent="1" source="May-3gd8B86LCepg70mn-64" target="May-3gd8B86LCepg70mn-68">
          <mxGeometry relative="1" as="geometry">
            <mxPoint x="1150" y="1000" as="targetPoint" />
          </mxGeometry>
        </mxCell>
        <mxCell id="May-3gd8B86LCepg70mn-69" value="" style="edgeStyle=orthogonalEdgeStyle;rounded=0;orthogonalLoop=1;jettySize=auto;html=1;endArrow=none;endFill=0;" edge="1" parent="1" source="May-3gd8B86LCepg70mn-64" target="May-3gd8B86LCepg70mn-55">
          <mxGeometry relative="1" as="geometry" />
        </mxCell>
        <mxCell id="May-3gd8B86LCepg70mn-64" value="根据RoutingStatementHandler &lt;br&gt;创建StatementHandler" style="rounded=1;whiteSpace=wrap;html=1;" vertex="1" parent="1">
          <mxGeometry x="1055" y="840" width="190" height="80" as="geometry" />
        </mxCell>
        <mxCell id="May-3gd8B86LCepg70mn-68" value="&lt;span style=&quot;font-size: 12.8px&quot;&gt;添加插件&lt;br&gt;pluginAll&lt;/span&gt;" style="rounded=1;whiteSpace=wrap;html=1;" vertex="1" parent="1">
          <mxGeometry x="1090" y="1000" width="120" height="80" as="geometry" />
        </mxCell>
      </root>
    </mxGraphModel>
  </diagram>
</mxfile>
